<?xml version="1.0" encoding="UTF-8"?>
<!DOCTYPE svg PUBLIC "-//W3C//DTD SVG 1.1//EN" "http://www.w3.org/Graphics/SVG/1.1/DTD/svg11.dtd">
<svg xmlns="http://www.w3.org/2000/svg" version="1.1" width="7292px" height="2191px" style="shape-rendering:geometricPrecision; text-rendering:geometricPrecision; image-rendering:optimizeQuality; fill-rule:evenodd; clip-rule:evenodd" xmlns:xlink="http://www.w3.org/1999/xlink">
<g><path style="opacity:0.995" fill="#ec3236" d="M 7274.5,-0.5 C 7275.17,-0.5 7275.83,-0.5 7276.5,-0.5C 7261.65,46.5472 7246.65,93.5472 7231.5,140.5C 7008.28,180.871 6784.94,220.704 6561.5,260C 6166.97,330.434 5770.63,388.6 5372.5,434.5C 5371.46,579.832 5371.29,725.165 5372,870.5C 5371.99,1076.74 5385.66,1282.08 5413,1486.5C 5418.32,1528.24 5424.15,1569.91 5430.5,1611.5C 5430.55,1614.77 5428.88,1616.27 5425.5,1616C 5363.16,1628.72 5300.16,1634.89 5236.5,1634.5C 5182.95,1634.24 5129.62,1630.74 5076.5,1624C 5088.17,1536.66 5096.67,1448.82 5102,1360.5C 5113.89,1187.19 5121.06,1013.69 5123.5,840C 5122.56,716.378 5118.22,592.878 5110.5,469.5C 4901.03,499.941 4690.7,522.441 4479.5,537C 4224.76,555.361 3969.76,568.194 3714.5,575.5C 3718.32,516.629 3726.15,458.295 3738,400.5C 3744.44,370.385 3754.11,341.385 3767,313.5C 3770.55,306.901 3774.71,300.735 3779.5,295C 4192.5,278.491 4605.17,255.824 5017.5,227C 5261.45,209.641 5505.11,188.974 5748.5,165C 6257.85,114.766 6766.52,59.5995 7274.5,-0.5 Z"/></g>
<g><path style="opacity:0.996" fill="#ec3236" d="M -0.5,186.5 C 487.947,212.83 976.28,241.33 1464.5,272C 1736.68,285.474 2009.02,294.474 2281.5,299C 2639.82,305.429 2998.16,306.096 3356.5,301C 3411.02,300.095 3465.52,298.595 3520,296.5C 3521.17,296.833 3522.33,297.167 3523.5,297.5C 3508.22,397.369 3492.88,497.202 3477.5,597C 2870.37,584.29 2263.71,559.957 1657.5,524C 1468.77,512.746 1280.1,500.579 1091.5,487.5C 1061.5,620.165 1045.17,754.499 1042.5,890.5C 1253.24,888.739 1463.58,878.572 1673.5,860C 1723.99,855.371 1774.33,849.538 1824.5,842.5C 1829.98,938.764 1831.48,1035.1 1829,1131.5C 1828.3,1150.2 1827.13,1168.87 1825.5,1187.5C 1563.84,1169.45 1302.17,1151.45 1040.5,1133.5C 1038.67,1232.16 1038.17,1330.83 1039,1429.5C 1038.84,1543.36 1046.5,1656.7 1062,1769.5C 1071.96,1844.75 1083.46,1919.75 1096.5,1994.5C 962.167,1994.5 827.833,1994.5 693.5,1994.5C 717.682,1839.73 737.515,1684.4 753,1528.5C 763.714,1390.04 769.547,1251.37 770.5,1112.5C 639.018,1107.19 507.685,1099.35 376.5,1089C 343.417,1086.19 310.417,1082.69 277.5,1078.5C 273.922,1021.16 270.255,963.828 266.5,906.5C 439.495,902.272 612.495,898.272 785.5,894.5C 779.748,773.309 771.248,652.309 760,531.5C 757.406,505.751 754.24,480.084 750.5,454.5C 629.182,442.742 508.182,428.242 387.5,411C 331.967,401.745 276.634,391.411 221.5,380C 147.386,364.611 73.3861,348.777 -0.5,332.5C -0.5,283.833 -0.5,235.167 -0.5,186.5 Z"/></g>
<g><path style="opacity:0.993" fill="#ec3236" d="M 6803.5,789.5 C 6806.14,789.954 6808.47,791.121 6810.5,793C 6839.69,817.023 6869.02,840.856 6898.5,864.5C 6899.58,865.365 6899.75,866.365 6899,867.5C 6802.71,980.794 6706.04,1093.79 6609,1206.5C 6607.6,1208.39 6606.43,1210.39 6605.5,1212.5C 6616.22,1253.26 6633.38,1290.92 6657,1325.5C 6669.89,1343.73 6686.39,1357.56 6706.5,1367C 6726.34,1373.94 6746.34,1374.28 6766.5,1368C 6792.46,1360.52 6816.79,1349.52 6839.5,1335C 6876.23,1311.13 6909.89,1283.3 6940.5,1251.5C 6946.67,1255.42 6952.67,1259.59 6958.5,1264C 6911.39,1335.01 6859.56,1402.51 6803,1466.5C 6767.09,1507.1 6724.92,1539.27 6676.5,1563C 6653.08,1574.36 6628.41,1581.36 6602.5,1584C 6566.33,1586.83 6534,1577.16 6505.5,1555C 6468.67,1523.85 6440.17,1486.35 6420,1442.5C 6341.21,1532.3 6262.04,1621.8 6182.5,1711C 6157.69,1687.53 6133.36,1663.19 6109.5,1638C 6194.51,1529.66 6279.51,1421.32 6364.5,1313C 6331.72,1232.64 6298.55,1152.47 6265,1072.5C 6220.73,1210.8 6150.06,1333.13 6053,1439.5C 6020.37,1473.84 5985.2,1505.01 5947.5,1533C 5842.08,1605.54 5730.08,1617.54 5611.5,1569C 5560.81,1546.41 5517.98,1513.57 5483,1470.5C 5467.61,1449.39 5455.61,1426.39 5447,1401.5C 5415.09,1313.97 5404.76,1223.97 5416,1131.5C 5426.19,1055.82 5455.86,989.151 5505,931.5C 5559.01,876.453 5624.51,843.619 5701.5,833C 5762.75,823.853 5822.41,829.853 5880.5,851C 5936.44,875.274 5978.61,914.441 6007,968.5C 6037.34,1027.22 6049.84,1089.39 6044.5,1155C 5925.35,1185.04 5806.35,1215.54 5687.5,1246.5C 5701.42,1290.68 5721.92,1331.35 5749,1368.5C 5762.82,1386.65 5780.32,1399.82 5801.5,1408C 5816.05,1412.18 5830.72,1412.52 5845.5,1409C 5876.41,1403.21 5905.07,1391.88 5931.5,1375C 5961.04,1355.14 5987.87,1331.97 6012,1305.5C 6056.63,1253.78 6092.96,1196.45 6121,1133.5C 6158.93,1050.88 6193.43,966.876 6224.5,881.5C 6299.3,856.401 6374.13,831.401 6449,806.5C 6450.88,808.45 6452.22,810.784 6453,813.5C 6486.21,900.294 6519.71,986.961 6553.5,1073.5C 6637.22,979.116 6720.55,884.449 6803.5,789.5 Z M 5790.5,950.5 C 5826.76,951.552 5857.26,965.219 5882,991.5C 5900.84,1011.88 5914.01,1035.55 5921.5,1062.5C 5839.44,1080.58 5757.44,1098.91 5675.5,1117.5C 5675.67,1073.81 5687.17,1033.47 5710,996.5C 5729.87,968.818 5756.71,953.484 5790.5,950.5 Z"/></g>
<g><path style="opacity:0.994" fill="#ec3236" d="M 5920.5,2190.5 C 5902.17,2190.5 5883.83,2190.5 5865.5,2190.5C 5663.64,2184.16 5470.97,2138.66 5287.5,2054C 5166.11,1998.03 5054.11,1928.03 4951.5,1844C 4878.33,1779.84 4811.83,1709.68 4752,1633.5C 4683.06,1545.66 4621.06,1452.99 4566,1355.5C 4547.43,1420.68 4515.43,1478.01 4470,1527.5C 4407.04,1589.38 4331.21,1623.88 4242.5,1631C 4196.54,1635.99 4151.21,1632.65 4106.5,1621C 4046.38,1603.48 4000.38,1567.98 3968.5,1514.5C 3956.01,1545.17 3935.67,1569.33 3907.5,1587C 3853.97,1620.22 3795.97,1632.88 3733.5,1625C 3691.4,1616.85 3659.24,1594.68 3637,1558.5C 3627.56,1538.95 3622.56,1518.28 3622,1496.5C 3613.06,1401.16 3604.06,1305.82 3595,1210.5C 3536.42,1336.67 3475.42,1461.67 3412,1585.5C 3402.57,1605.26 3389.73,1622.42 3373.5,1637C 3351.23,1652.93 3329.57,1652.26 3308.5,1635C 3301.13,1626.75 3295.96,1617.25 3293,1606.5C 3287.09,1567.66 3282.42,1528.66 3279,1489.5C 3269.78,1388.17 3260.78,1286.84 3252,1185.5C 3198.03,1317.07 3142.7,1448.07 3086,1578.5C 3078.57,1595.59 3067.73,1610.09 3053.5,1622C 3033.01,1637.15 3012.67,1637.15 2992.5,1622C 2981.05,1607.99 2974.88,1591.82 2974,1573.5C 2963.82,1492.66 2955.15,1411.66 2948,1330.5C 2917.2,1398.44 2882.53,1464.11 2844,1527.5C 2802.19,1597.23 2740.69,1637.4 2659.5,1648C 2633.05,1651.51 2607.71,1647.84 2583.5,1637C 2576.76,1632.93 2570.59,1628.1 2565,1622.5C 2551.94,1607.39 2540.61,1591.05 2531,1573.5C 2510.21,1533.14 2492.55,1491.47 2478,1448.5C 2424.35,1514.85 2359.51,1567.01 2283.5,1605C 2219.62,1635.8 2152.28,1649.14 2081.5,1645C 2030.44,1642.22 1986.11,1623.89 1948.5,1590C 1882.31,1523.11 1843.81,1442.61 1833,1348.5C 1826.99,1286.89 1836.66,1227.89 1862,1171.5C 1892.38,1105.53 1931.05,1045.2 1978,990.5C 2020.56,941.926 2071.06,904.093 2129.5,877C 2161.8,863.175 2195.47,854.842 2230.5,852C 2281,848.786 2331.33,850.453 2381.5,857C 2413.23,861.946 2444.9,867.28 2476.5,873C 2507.35,878.882 2537.68,876.882 2567.5,867C 2587.96,860.098 2607.63,851.598 2626.5,841.5C 2648.41,989.218 2675.91,1135.88 2709,1281.5C 2718.19,1320.94 2729.86,1359.6 2744,1397.5C 2748.44,1410.22 2755.27,1421.39 2764.5,1431C 2766.27,1431.97 2768.11,1432.8 2770,1433.5C 2778.64,1430.87 2785.64,1425.87 2791,1418.5C 2809.14,1390.89 2824.14,1361.55 2836,1330.5C 2885.66,1205.2 2920.66,1075.87 2941,942.5C 2941.16,940.324 2942,938.491 2943.5,937C 3003.25,896.709 3063.08,856.543 3123,816.5C 3125.64,826.013 3127.64,835.679 3129,845.5C 3142.51,949.28 3154.01,1053.28 3163.5,1157.5C 3193.49,1079.37 3222.99,1001.04 3252,922.5C 3314.62,892.607 3377.78,863.941 3441.5,836.5C 3452.86,946.557 3464.69,1056.56 3477,1166.5C 3518.75,1088.01 3560.75,1009.67 3603,931.5C 3604.73,929.383 3606.9,927.883 3609.5,927C 3670.5,901.167 3731.5,875.333 3792.5,849.5C 3811.33,1057.79 3829.83,1266.12 3848,1474.5C 3862.43,1477.13 3874.77,1473.13 3885,1462.5C 3897.45,1445.26 3906.45,1426.26 3912,1405.5C 3914.11,1398.31 3915.44,1390.97 3916,1383.5C 3917.67,1347.5 3919.33,1311.5 3921,1275.5C 3923.76,1211.03 3935.76,1148.36 3957,1087.5C 3998.72,979.45 4074.88,908.284 4185.5,874C 4232.45,861.736 4280.12,857.736 4328.5,862C 4351.86,864.114 4375.19,866.447 4398.5,869C 4423.04,870.372 4447.37,868.705 4471.5,864C 4496.87,857.24 4522.54,851.906 4548.5,848C 4572.45,845.299 4596.45,844.466 4620.5,845.5C 4647.36,844.664 4674.03,841.997 4700.5,837.5C 4758.42,1006.76 4822.92,1173.43 4894,1337.5C 4927.8,1415.1 4965.8,1490.44 5008,1563.5C 5059.86,1650.08 5123.03,1727.91 5197.5,1797C 5316.94,1902.39 5454.94,1973.06 5611.5,2009C 5715.81,2033.03 5821.48,2044.03 5928.5,2042C 6026.09,2037.15 6119.75,2015.48 6209.5,1977C 6295.68,1939.36 6375.68,1892.02 6449.5,1835C 6550.59,1755.58 6639.76,1664.75 6717,1562.5C 6800.65,1580.94 6880.82,1609.1 6957.5,1647C 6976.58,1657.29 6995.08,1668.45 7013,1680.5C 7013.42,1682.79 7012.75,1684.79 7011,1686.5C 6904.12,1819.43 6775.96,1926.27 6626.5,2007C 6434.91,2108.41 6230.91,2167.75 6014.5,2185C 5983.04,2187.44 5951.71,2189.27 5920.5,2190.5 Z M 2287.5,952.5 C 2311.25,951.367 2334.58,953.867 2357.5,960C 2379.36,967.532 2395.19,981.698 2405,1002.5C 2411.1,1021.88 2416.1,1041.55 2420,1061.5C 2428.1,1100.02 2435.44,1138.69 2442,1177.5C 2447.29,1214.47 2447.62,1251.47 2443,1288.5C 2441.14,1300.43 2437.47,1311.76 2432,1322.5C 2399.11,1382.73 2354.27,1432.23 2297.5,1471C 2245.22,1504.24 2193.56,1503.24 2142.5,1468C 2112.12,1443.77 2091.28,1412.94 2080,1375.5C 2054.42,1255.18 2078.42,1145.84 2152,1047.5C 2176.55,1015.34 2206.05,988.838 2240.5,968C 2255.21,959.484 2270.88,954.317 2287.5,952.5 Z M 4348.5,963.5 C 4379.8,960.574 4405.3,971.241 4425,995.5C 4441.22,1018.59 4454.88,1043.25 4466,1069.5C 4474.59,1089.6 4482.59,1109.93 4490,1130.5C 4497.81,1171.18 4500.47,1212.18 4498,1253.5C 4495.69,1281.41 4488.69,1308.07 4477,1333.5C 4460.46,1371.1 4437.63,1404.27 4408.5,1433C 4388.38,1451.9 4364.71,1464.23 4337.5,1470C 4280.81,1475.74 4237.98,1454.24 4209,1405.5C 4191.7,1372.65 4182.04,1337.65 4180,1300.5C 4177.29,1247.66 4182.62,1195.66 4196,1144.5C 4213.76,1080.15 4248.26,1026.98 4299.5,985C 4314.44,974.525 4330.78,967.358 4348.5,963.5 Z"/></g>
<g><path style="opacity:0.957" fill="#ec3236" d="M 7291.5,1997.5 C 7291.5,2008.5 7291.5,2019.5 7291.5,2030.5C 7282.75,2085.48 7252.75,2123.98 7201.5,2146C 7145.33,2164.7 7095.33,2154.37 7051.5,2115C 7010.91,2071.05 7000.08,2020.55 7019,1963.5C 7040.59,1911.92 7079.09,1882.08 7134.5,1874C 7195.44,1869.55 7241.94,1893.05 7274,1944.5C 7282.78,1961.33 7288.61,1978.99 7291.5,1997.5 Z M 7142.5,1900.5 C 7191.27,1899.8 7227.77,1920.46 7252,1962.5C 7274.05,2013.25 7265.88,2058.42 7227.5,2098C 7185.98,2131.93 7141.31,2136.6 7093.5,2112C 7047.8,2081.74 7030.3,2039.58 7041,1985.5C 7057.11,1935.88 7090.94,1907.55 7142.5,1900.5 Z M 7118.5,1955.5 C 7132.5,1955.33 7146.5,1955.5 7160.5,1956C 7168.41,1955.96 7176.08,1957.3 7183.5,1960C 7190.08,1964.32 7193.08,1970.49 7192.5,1978.5C 7192.6,1990.89 7186.6,1998.39 7174.5,2001C 7155.87,2002.42 7137.21,2002.92 7118.5,2002.5C 7118.5,1986.83 7118.5,1971.17 7118.5,1955.5 Z"/></g>
<g><path style="opacity:0.962" fill="#ec3236" d="M 7090.5,1931.5 C 7121.86,1931.06 7153.2,1931.56 7184.5,1933C 7208.25,1938.26 7220.58,1953.09 7221.5,1977.5C 7221.53,1991.94 7215.86,2003.44 7204.5,2012C 7210.07,2015.29 7213.57,2020.12 7215,2026.5C 7217.06,2039.77 7218.73,2053.11 7220,2066.5C 7220.12,2070.42 7221.95,2073.09 7225.5,2074.5C 7226.49,2078.45 7226.82,2082.45 7226.5,2086.5C 7215.25,2086.82 7204.09,2086.49 7193,2085.5C 7191.07,2082.05 7189.74,2078.39 7189,2074.5C 7187.85,2062.81 7186.51,2051.14 7185,2039.5C 7184.35,2031.91 7180.18,2028.08 7172.5,2028C 7155.52,2026.73 7138.52,2026.23 7121.5,2026.5C 7121.5,2046.5 7121.5,2066.5 7121.5,2086.5C 7111.17,2086.5 7100.83,2086.5 7090.5,2086.5C 7090.5,2034.83 7090.5,1983.17 7090.5,1931.5 Z M 7118.5,1955.5 C 7118.5,1971.17 7118.5,1986.83 7118.5,2002.5C 7137.21,2002.92 7155.87,2002.42 7174.5,2001C 7186.6,1998.39 7192.6,1990.89 7192.5,1978.5C 7193.08,1970.49 7190.08,1964.32 7183.5,1960C 7176.08,1957.3 7168.41,1955.96 7160.5,1956C 7146.5,1955.5 7132.5,1955.33 7118.5,1955.5 Z"/></g>
</svg>
